/* XPM */
static char * torch1_wall2_xpm[] = {
"63 63 681 2",
"  	c None",
". 	c #516C75",
"+ 	c #49636D",
"@ 	c #37515C",
"# 	c #2A4350",
"$ 	c #273F4C",
"% 	c #263E4B",
"& 	c #253D4A",
"* 	c #28404D",
"= 	c #28414E",
"- 	c #29424F",
"; 	c #304A56",
"> 	c #3E5964",
", 	c #516770",
"' 	c #556971",
") 	c #4A656F",
"! 	c #435E68",
"~ 	c #36525E",
"{ 	c #2D4A58",
"] 	c #2C4857",
"^ 	c #2E4958",
"/ 	c #324C5A",
"( 	c #354E5B",
"_ 	c #364E5B",
": 	c #364D5A",
"< 	c #354D5A",
"[ 	c #37505D",
"} 	c #38515E",
"| 	c #37515E",
"1 	c #344F5C",
"2 	c #304B59",
"3 	c #324E5C",
"4 	c #3C5864",
"5 	c #445E69",
"6 	c #496069",
"7 	c #4E636C",
"8 	c #4A656E",
"9 	c #3F5A65",
"0 	c #395662",
"a 	c #395866",
"b 	c #3B5A69",
"c 	c #3F5D6C",
"d 	c #476271",
"e 	c #506A77",
"f 	c #546C78",
"g 	c #556B77",
"h 	c #556A76",
"i 	c #546975",
"j 	c #566C79",
"k 	c #566E7A",
"l 	c #556E7A",
"m 	c #506B77",
"n 	c #466270",
"o 	c #3D5B6A",
"p 	c #3A5866",
"q 	c #395562",
"r 	c #39515C",
"s 	c #435A64",
"t 	c #57717A",
"u 	c #59747E",
"v 	c #435D68",
"w 	c #304A57",
"x 	c #445F69",
"y 	c #385461",
"z 	c #435D6A",
"A 	c #5A7380",
"B 	c #6C838F",
"C 	c #798F99",
"D 	c #8599A2",
"E 	c #8FA2AA",
"F 	c #95A7AD",
"G 	c #98A8AE",
"H 	c #99A8AE",
"I 	c #99A7AD",
"J 	c #98A7AD",
"K 	c #99A9AF",
"L 	c #98A9B0",
"M 	c #97A9AF",
"N 	c #8FA3AA",
"O 	c #80959E",
"P 	c #6C828D",
"Q 	c #516B79",
"R 	c #395665",
"S 	c #2F4A57",
"T 	c #3A535D",
"U 	c #4F6A73",
"V 	c #516C76",
"W 	c #3F5964",
"X 	c #304A58",
"Y 	c #3D5761",
"Z 	c #395560",
"` 	c #375562",
" .	c #59717D",
"..	c #8196A0",
"+.	c #9BAFB7",
"@.	c #AFC1C7",
"#.	c #BECFD3",
"$.	c #CAD9DC",
"%.	c #D1DFE1",
"&.	c #D5E1E4",
"*.	c #D6E2E4",
"=.	c #D6E3E4",
"-.	c #D4E2E4",
";.	c #D2E2E3",
">.	c #C9DADD",
",.	c #B6C8CD",
"'.	c #9AADB5",
").	c #708792",
"!.	c #446171",
"~.	c #334C57",
"{.	c #3F5963",
"].	c #415B66",
"^.	c #37525E",
"/.	c #2F4B59",
"(.	c #314A55",
"_.	c #304C59",
":.	c #395766",
"<.	c #69808B",
"[.	c #B9CAD0",
"}.	c #CDDEE1",
"|.	c #DBEAEC",
"1.	c #E3F1F2",
"2.	c #E8F6F6",
"3.	c #EBF8F9",
"4.	c #ECF9FA",
"5.	c #ECF9F9",
"6.	c #EBF9F9",
"7.	c #E9F8F8",
"8.	c #E1F1F2",
"9.	c #D1E2E5",
"0.	c #B5C7CD",
"a.	c #849AA4",
"b.	c #506C7C",
"c.	c #365361",
"d.	c #2E4753",
"e.	c #334D58",
"f.	c #2A414D",
"g.	c #2D4856",
"h.	c #768C96",
"i.	c #ACBEC3",
"j.	c #CBDBDF",
"k.	c #DEEDEE",
"l.	c #E7F5F6",
"m.	c #E9F7F7",
"n.	c #E6F5F6",
"o.	c #DCEDEE",
"p.	c #C3D6DA",
"q.	c #92A8B0",
"r.	c #5B7685",
"s.	c #3C5766",
"t.	c #2C4551",
"u.	c #2B4450",
"v.	c #2D4956",
"w.	c #2E4B59",
"x.	c #283F4B",
"y.	c #456170",
"z.	c #81969F",
"A.	c #B9CACF",
"B.	c #D7E6E9",
"C.	c #E6F4F5",
"D.	c #EAF8F8",
"E.	c #DCEEF0",
"F.	c #C5D9DD",
"G.	c #96ADB6",
"H.	c #627E8B",
"I.	c #415C6A",
"J.	c #253C47",
"K.	c #273E4A",
"L.	c #2B4653",
"M.	c #2E4A58",
"N.	c #2A424E",
"O.	c #344E5C",
"P.	c #4E6976",
"Q.	c #8A9EA7",
"R.	c #C3D3D7",
"S.	c #DEEDEF",
"T.	c #E3F3F4",
"U.	c #D6E9EC",
"V.	c #BDD4D9",
"W.	c #95AEB7",
"X.	c #698591",
"Y.	c #47616D",
"Z.	c #233A45",
"`.	c #253C48",
" +	c #2A4552",
".+	c #2D4957",
"++	c #38515D",
"@+	c #93A5AC",
"#+	c #CCDBDE",
"$+	c #E4F3F4",
"%+	c #E9F7F8",
"&+	c #E8F7F7",
"*+	c #E2F2F3",
"=+	c #D1E5E8",
"-+	c #B9D1D7",
";+	c #9AB3BC",
">+	c #76909B",
",+	c #506974",
"'+	c #263D48",
")+	c #2B4552",
"!+	c #2D4958",
"~+	c #29414D",
"{+	c #3A515D",
"]+	c #5B707B",
"^+	c #9AAAB0",
"/+	c #D4E2E3",
"(+	c #EBF8F8",
"_+	c #E1F2F2",
":+	c #CFE3E6",
"<+	c #B9D0D7",
"[+	c #A2BBC3",
"}+	c #859DA7",
"|+	c #5A707B",
"1+	c #2D4652",
"2+	c #243C47",
"3+	c #273F4B",
"4+	c #2C4654",
"5+	c #2E4A59",
"6+	c #29404C",
"7+	c #3B515C",
"8+	c #5D717B",
"9+	c #9DACB1",
"0+	c #D8E4E5",
"a+	c #EDFAFA",
"b+	c #ECFAFA",
"c+	c #E9F4F2",
"d+	c #EDD2C2",
"e+	c #EAEBE6",
"f+	c #CEE2E6",
"g+	c #B9D0D6",
"h+	c #A6BEC6",
"i+	c #8AA2AB",
"j+	c #5D747D",
"k+	c #2C4755",
"l+	c #28404C",
"m+	c #3A505C",
"n+	c #5C707A",
"o+	c #9DABB0",
"p+	c #E8F6F5",
"q+	c #F0C0A4",
"r+	c #EFC6AF",
"s+	c #A5BEC5",
"t+	c #8AA2AA",
"u+	c #5D737D",
"v+	c #253D49",
"w+	c #2D4755",
"x+	c #2F4B5A",
"y+	c #5C6F79",
"z+	c #D7E4E5",
"A+	c #EAE9E3",
"B+	c #F0A775",
"C+	c #EF974C",
"D+	c #E8E5DF",
"E+	c #5D737C",
"F+	c #EBD8CB",
"G+	c #F29338",
"H+	c #F19B53",
"I+	c #E9DED5",
"J+	c #EBDACE",
"K+	c #F09643",
"L+	c #F0953E",
"M+	c #EAAF8A",
"N+	c #E8F5F5",
"O+	c #E9B493",
"P+	c #EA8B2E",
"Q+	c #EBA576",
"R+	c #E8EBE7",
"S+	c #E9BDA3",
"T+	c #ED8E33",
"U+	c #F2963C",
"V+	c #ECCCB8",
"W+	c #E8E9E4",
"X+	c #EE9752",
"Y+	c #F49A43",
"Z+	c #EF9F64",
"`+	c #E9ECE8",
" @	c #E9EFEC",
".@	c #EACAB7",
"+@	c #F39942",
"@@	c #F39843",
"#@	c #EAC9B5",
"$@	c #EAE5DE",
"%@	c #ECD5C7",
"&@	c #E8F1EF",
"*@	c #EAD0C0",
"=@	c #F19436",
"-@	c #F59E46",
";@	c #D9A179",
">@	c #DFB49A",
",@	c #ECD3C3",
"'@	c #E8F0EE",
")@	c #E9B696",
"!@	c #E9DCD1",
"~@	c #EFC4A9",
"{@	c #F4993A",
"]@	c #F6A045",
"^@	c #F09435",
"/@	c #EE9232",
"(@	c #EDD1C0",
"_@	c #E8EFEC",
":@	c #EBD9CC",
"<@	c #F4993E",
"[@	c #F7A141",
"}@	c #F7A344",
"|@	c #F6A143",
"1@	c #F69E41",
"2@	c #EDD2C0",
"3@	c #ECB996",
"4@	c #F29D3B",
"5@	c #F6A442",
"6@	c #F7A442",
"7@	c #F3A241",
"8@	c #D98F39",
"9@	c #D7CBC0",
"0@	c #E7F5F5",
"a@	c #C4AC94",
"b@	c #B87F2E",
"c@	c #DB9439",
"d@	c #E0963A",
"e@	c #BD822F",
"f@	c #A27D4B",
"g@	c #C8D2D0",
"h@	c #B1A593",
"i@	c #976C28",
"j@	c #A17228",
"k@	c #A37428",
"l@	c #9D7027",
"m@	c #A7957F",
"n@	c #E5F3F2",
"o@	c #E6F5F5",
"p@	c #9A9A92",
"q@	c #76551E",
"r@	c #876022",
"s@	c #8C6424",
"t@	c #805C20",
"u@	c #9E9C94",
"v@	c #E4F3F3",
"w@	c #939792",
"x@	c #5C4116",
"y@	c #644717",
"z@	c #694B19",
"A@	c #6E4E1A",
"B@	c #9C9A91",
"C@	c #E5F3F3",
"D@	c #A5ACA9",
"E@	c #5A482E",
"F@	c #604318",
"G@	c #614518",
"H@	c #65481A",
"I@	c #908C83",
"J@	c #E4F3F2",
"K@	c #E7F6F6",
"L@	c #C7D2D1",
"M@	c #7D796F",
"N@	c #644818",
"O@	c #614419",
"P@	c #66491F",
"Q@	c #C4CDCA",
"R@	c #D7E3E2",
"S@	c #614F39",
"T@	c #634818",
"U@	c #5E4219",
"V@	c #715C44",
"W@	c #D3DEDD",
"X@	c #5E4C37",
"Y@	c #5B4018",
"Z@	c #66471B",
"`@	c #A7A8A1",
" #	c #E6F5F4",
".#	c #D6E3E2",
"+#	c #594833",
"@#	c #573D18",
"##	c #5F4319",
"$#	c #7D6F5F",
"%#	c #E1EFEF",
"&#	c #979A96",
"*#	c #523B17",
"=#	c #5A3F19",
"-#	c #614B2E",
";#	c #D0DBDA",
">#	c #BAC2BF",
",#	c #543C18",
"'#	c #5A401A",
")#	c #A1A29D",
"!#	c #BAC1BF",
"~#	c #664A1A",
"{#	c #817A6F",
"]#	c #D9E6E5",
"^#	c #B7C0BE",
"/#	c #523B18",
"(#	c #573E1B",
"_#	c #5B411C",
":#	c #CFDAD9",
"<#	c #4F3818",
"[#	c #583F1B",
"}#	c #503919",
"|#	c #8A8880",
"1#	c #DCEAE9",
"2#	c #4A3517",
"3#	c #533B1A",
"4#	c #6D5F4E",
"5#	c #D4DFDE",
"6#	c #483416",
"7#	c #563D1A",
"8#	c #979993",
"9#	c #E2F0F0",
"0#	c #CCD8D7",
"a#	c #655E53",
"b#	c #593F1A",
"c#	c #ABAFAA",
"d#	c #E3F2F1",
"e#	c #82827C",
"f#	c #593F1B",
"g#	c #ABAEAA",
"h#	c #E3F2F2",
"i#	c #81817D",
"j#	c #583E1B",
"k#	c #81827D",
"l#	c #563D1B",
"m#	c #AAAEAA",
"n#	c #82827D",
"o#	c #543C1B",
"p#	c #A8AEAB",
"q#	c #E4F2F2",
"r#	c #868783",
"s#	c #6F665B",
"t#	c #DAE7E6",
"u#	c #71695E",
"v#	c #DEEBEB",
"w#	c #A4BDC4",
"x#	c #89A1A9",
"y#	c #5C727C",
"z#	c #2D4551",
"A#	c #3B515D",
"B#	c #5C707B",
"C#	c #858783",
"D#	c #6B6256",
"E#	c #D6E2E2",
"F#	c #B8CFD6",
"G#	c #A2BAC2",
"H#	c #859DA6",
"I#	c #596F7A",
"J#	c #2C4450",
"K#	c #243B47",
"L#	c #D4E1E3",
"M#	c #EAF7F8",
"N#	c #625C54",
"O#	c #4C361A",
"P#	c #6F6A62",
"Q#	c #B6CED4",
"R#	c #9BB4BD",
"S#	c #7B949F",
"T#	c #536A75",
"U#	c #2B4350",
"V#	c #2C4754",
"W#	c #526B77",
"X#	c #90A2AA",
"Y#	c #E3F1F3",
"Z#	c #E9F8F7",
"`#	c #E1F2F3",
" $	c #B3CBD2",
".$	c #8FA8B3",
"+$	c #688390",
"@$	c #2B4550",
"#$	c #253D48",
"$$	c #4B6673",
"%$	c #889CA4",
"&$	c #C1D2D6",
"*$	c #DCECEE",
"=$	c #E6F6F6",
"-$	c #E5F5F6",
";$	c #E5F5F5",
">$	c #DFF0F1",
",$	c #B3CAD1",
"'$	c #89A2AE",
")$	c #5D7988",
"!$	c #405B69",
"~$	c #2C4651",
"{$	c #273F4A",
"]$	c #29414C",
"^$	c #29424D",
"/$	c #2F4B58",
"($	c #45616F",
"_$	c #82979F",
":$	c #BBCDD1",
"<$	c #D8E8EB",
"[$	c #E5F3F4",
"}$	c #DFF1F2",
"|$	c #DEF0F1",
"1$	c #DDEFF0",
"2$	c #D8EAED",
"3$	c #CCE1E5",
"4$	c #B5CCD3",
"5$	c #8EA7B1",
"6$	c #647F8C",
"7$	c #445E6B",
"8$	c #2D4752",
"9$	c #2A434D",
"0$	c #2C444F",
"a$	c #2C4653",
"b$	c #2C4856",
"c$	c #28404B",
"d$	c #3F5B69",
"e$	c #778C95",
"f$	c #ABBEC4",
"g$	c #C9DADE",
"h$	c #D8E8EA",
"i$	c #DBEBED",
"j$	c #D6E7E9",
"k$	c #D2E4E7",
"l$	c #D0E3E6",
"m$	c #CEE2E5",
"n$	c #CBE0E3",
"o$	c #C7DCE1",
"p$	c #C1D7DC",
"q$	c #B0C6CD",
"r$	c #8BA3AC",
"s$	c #637C89",
"t$	c #445D69",
"u$	c #304954",
"v$	c #304953",
"w$	c #314A53",
"x$	c #2D4653",
"y$	c #2A4452",
"z$	c #2B434D",
"A$	c #2D4753",
"B$	c #375360",
"C$	c #607783",
"D$	c #8BA0A9",
"E$	c #A7BCC2",
"F$	c #BACDD2",
"G$	c #BED2D6",
"H$	c #B8CCD2",
"I$	c #B3CAD0",
"J$	c #B2C9D0",
"K$	c #B0C7CF",
"L$	c #ABC3CB",
"M$	c #A8C1C9",
"N$	c #A9C0C7",
"O$	c #9CB3BA",
"P$	c #788F9A",
"Q$	c #516B78",
"R$	c #3D5763",
"S$	c #354F59",
"T$	c #39525B",
"U$	c #37515A",
"V$	c #2E4752",
"W$	c #28404E",
"X$	c #364D56",
"Y$	c #334D5A",
"Z$	c #49616E",
"`$	c #667E89",
" %	c #7F96A0",
".%	c #93A9B1",
"+%	c #98AEB6",
"@%	c #92A9B2",
"#%	c #8EA8B2",
"$%	c #8EA8B3",
"%%	c #8BA5AF",
"&%	c #85A0AB",
"*%	c #839EA9",
"=%	c #89A1AA",
"-%	c #8197A0",
";%	c #607883",
">%	c #405B68",
",%	c #3A5560",
"'%	c #3F5861",
")%	c #476068",
"!%	c #445D65",
"~%	c #354C56",
"{%	c #445C64",
"]%	c #3E5760",
"^%	c #344D58",
"/%	c #364F5C",
"(%	c #445C69",
"_%	c #546B76",
":%	c #617782",
"<%	c #657C87",
"[%	c #637C87",
"}%	c #617C88",
"|%	c #627C89",
"1%	c #627D8A",
"2%	c #627E8A",
"3%	c #5F7985",
"4%	c #597481",
"5%	c #58727F",
"6%	c #5D7681",
"7%	c #475E6A",
"8%	c #39535E",
"9%	c #3F5962",
"0%	c #4B656C",
"a%	c #577177",
"b%	c #546D73",
"c%	c #3E565E",
"d%	c #2D444F",
"e%	c #4B646C",
"f%	c #435B64",
"g%	c #344C56",
"h%	c #2B444F",
"i%	c #29414E",
"j%	c #294250",
"k%	c #2B4553",
"l%	c #324F5D",
"m%	c #355260",
"n%	c #365362",
"o%	c #375463",
"p%	c #385564",
"q%	c #2F4A58",
"r%	c #334E5B",
"s%	c #36505C",
"t%	c #374F5A",
"u%	c #3D545D",
"v%	c #486067",
"w%	c #536C72",
"x%	c #5F787E",
"y%	c #5C757A",
"z%	c #445B63",
"A%	c #2F4651",
"B%	c #344A53",
"C%	c #2D434C",
"D%	c #243A45",
"E%	c #1E3540",
"F%	c #1C3440",
"G%	c #1E3642",
"H%	c #213A46",
"I%	c #2A434F",
"J%	c #2B434F",
"K%	c #2A434E",
"L%	c #27404C",
"M%	c #233B47",
"N%	c #2B434E",
"O%	c #334B54",
"P%	c #3D535C",
"Q%	c #475D64",
"R%	c #52686D",
"S%	c #596F74",
"T%	c #3B525B",
"U%	c #364C55",
"V%	c #2A404A",
"W%	c #233842",
"X%	c #223742",
"Y%	c #233843",
"Z%	c #243944",
"`%	c #263B45",
" &	c #273C47",
".&	c #283D47",
"+&	c #283E48",
"@&	c #263B46",
"#&	c #253A45",
"$&	c #263C46",
"%&	c #2B414A",
"&&	c #344A52",
"*&	c #40575F",
"=&	c #4C6269",
"-&	c #556B71",
";&	c #5A6F74",
">&	c #47626D",
",&	c #405B65",
"'&	c #324B57",
")&	c #29424E",
"!&	c #2B4451",
"~&	c #3E5660",
"{&	c #4A626B",
"]&	c #526971",
"^&	c #566C73",
"/&	c #4D6A75",
"(&	c #45626D",
"_&	c #36515D",
":&	c #2D4855",
"<&	c #2E4956",
"[&	c #304B58",
"}&	c #314D5A",
"|&	c #2A4451",
"1&	c #28424F",
"2&	c #294351",
"3&	c #2E4957",
"4&	c #27404D",
"5&	c #3D5660",
"6&	c #49626C",
"7&	c #506871",
"8&	c #546A73",
"    . + @ # $ % & % * * = = = = = = = = = = = = = = = = = = = = = = = = = = = = = = = = = = = = = - # - = = ; > + , '         ",
"    ) ! ~ { ] ^ / ( _ : : : : : : : : : : : : : : : : : : : : : : : : : : : : : : : : : : : : < _ [ } | 1 2 3 4 5 6 7         ",
". 8 9 0 a b c d e f g h i i i i i i i i i i i i i i i i i i i i i i i i i i i i i i i i i i i i h j k l m n o p q r s t u v w ",
"8 x y z A B C D E F G H I J J J J J J J J J J J J J J J J J J J J J J J J J J J J J J J J J J J I K L M N O P Q R S T U V W X ",
"Y Z `  ...+.@.#.$.%.&.*.*.*.*.*.*.*.*.*.*.*.*.*.*.*.*.*.*.*.*.*.*.*.*.*.*.*.*.*.*.*.*.*.*.*.*.*.*.=.-.;.>.,.'.).!.3 ~.{.].^./.",
"(._.:.<.'.[.}.|.1.2.3.4.4.4.4.4.4.4.4.4.4.4.4.4.4.4.4.4.4.4.4.4.4.4.4.4.4.4.4.4.4.4.4.4.4.4.4.4.4.5.6.7.8.9.0.a.b.c.d.(.e._./.",
"f.g.o h.i.j.k.l.m.3.6.4.4.4.4.4.4.4.4.4.4.4.4.4.4.4.4.4.4.4.4.4.4.4.4.4.4.4.4.4.4.4.4.4.4.4.4.4.4.5.6.6.n.o.p.q.r.s.t.f.u.v.w.",
"x.S y.z.A.B.C.5.6.D.D.D.D.D.D.D.D.D.D.D.D.D.D.D.D.D.D.D.D.D.D.D.D.D.D.D.D.D.D.D.D.D.D.D.D.D.D.D.D.D.D.D.n.E.F.G.H.I.u.J.K.L.M.",
"N.O.P.Q.R.S.2.6.7.m.m.m.m.m.m.m.m.m.m.m.m.m.m.m.m.m.m.m.m.m.m.m.m.m.m.m.m.m.m.m.m.m.m.m.m.m.m.m.m.m.m.7.T.U.V.W.X.Y.u.Z.`. +.+",
"N.++l @+#+$+%+D.m.&+&+&+&+&+&+&+&+&+&+&+&+&+&+&+&+&+&+&+&+&+&+&+&+&+&+&+&+&+&+&+&+&+&+&+&+&+&+&+&+&+&+&+*+=+-+;+>+,+t.Z.'+)+!+",
"~+{+]+^+/+(+6.D.m.&+&+&+&+&+&+&+&+&+&+&+&+&+&+&+&+&+&+&+&+&+&+&+&+&+&+&+&+&+&+&+&+&+&+&+&+&+&+&+&+&+&+&+_+:+<+[+}+|+1+2+3+4+5+",
"6+7+8+9+0+a+b+D.m.&+&+&+&+&+&+&+&+&+&+&+&+&+&+&+&+&+&+c+d+e+&+&+&+&+&+&+&+&+&+&+&+&+&+&+&+&+&+&+&+&+&+&+8.f+g+h+i+j+1+`.6+k+5+",
"l+m+n+o+0+a+b+D.m.&+&+&+&+&+&+&+&+&+&+&+&+&+&+&+&+&+p+q+r+&+&+&+&+&+&+&+&+&+&+&+&+&+&+&+&+&+&+&+&+&+&+&+8.f+g+s+t+u+1+v+f.w+x+",
"l+m+y+o+z+a+b+D.m.&+&+&+&+&+&+&+&+&+&+&+&+&+&+&+&+&+A+B+C+D+&+&+&+&+&+&+&+&+&+&+&+&+&+&+&+&+&+&+&+&+&+&+8.f+g+s+t+E+1+v+f.w+x+",
"l+m+y+o+z+a+b+D.m.&+&+&+&+&+&+&+&+&+&+&+&+&+&+&+&+&+F+G+H+I+&+&+&+&+&+&+&+&+&+&+&+&+&+&+&+&+&+&+&+&+&+&+8.f+g+s+t+E+1+v+f.w+x+",
"l+m+y+o+z+a+b+D.m.&+&+&+&+&+&+&+&+&+&+&+&+&+&+&+&+&+J+K+L+M+&+&+&+&+&+&+&+&+&+&+&+&+&+&+&+&+&+&+&+&+&+&+8.f+g+s+t+E+1+v+f.w+x+",
"l+m+y+o+z+a+b+D.m.&+&+&+&+&+&+&+&+&+&+&+&+&+&+&+&+&+N+O+P+Q+R+&+&+&+&+&+&+&+&+&+&+&+&+&+&+&+&+&+&+&+&+&+8.f+g+s+t+E+1+v+f.w+x+",
"l+m+y+o+z+a+b+D.m.&+&+&+&+&+&+&+&+&+&+&+&+&+&+&+&+&+p+S+T+U+V+2.&+&+&+&+&+&+&+&+&+&+&+&+&+&+&+&+&+&+&+&+8.f+g+s+t+E+1+v+f.w+x+",
"l+m+y+o+z+a+b+D.m.&+&+&+&+&+&+&+&+&+&+&+&+&+&+&+&+&+&+W+X+Y+Z+`+ @A+&+&+&+&+&+&+&+&+&+&+&+&+&+&+&+&+&+&+8.f+g+s+t+E+1+v+f.w+x+",
"l+m+y+o+z+a+b+D.m.&+&+&+&+&+&+&+&+&+&+&+&+&+&+&+&+&+&+p+.@+@@@#@$@%@&+&+&+&+&+&+&+&+&+&+&+&+&+&+&+&+&+&+8.f+g+s+t+E+1+v+f.w+x+",
"l+m+y+o+z+a+b+D.m.&+&+&+&+&+&+&+&+&+&+&+&+&+&+&+&+2.&@p+*@=@-@;@>@,@&+&+&+&+&+&+&+&+&+&+&+&+&+&+&+&+&+&+8.f+g+s+t+E+1+v+f.w+x+",
"l+m+y+o+z+a+b+D.m.&+&+&+&+&+&+&+&+&+&+&+&+&+&+&+&+'@)@!@~@{@]@^@/@(@&+&+&+&+&+&+&+&+&+&+&+&+&+&+&+&+&+&+8.f+g+s+t+E+1+v+f.w+x+",
"l+m+y+o+z+a+b+D.m.&+&+&+&+&+&+&+&+&+&+&+&+&+&+&+&+&+_@:@<@[@}@|@1@2@&+&+&+&+&+&+&+&+&+&+&+&+&+&+&+&+&+&+8.f+g+s+t+E+1+v+f.w+x+",
"l+m+y+o+z+a+b+D.m.&+&+&+&+&+&+&+&+&+&+&+&+&+&+&+&+&+N+3@4@5@6@7@8@9@&+&+&+&+&+&+&+&+&+&+&+&+&+&+&+&+&+&+8.f+g+s+t+E+1+v+f.w+x+",
"l+m+y+o+z+a+b+D.m.&+&+&+&+&+&+&+&+&+&+&+&+&+&+&+&+&+0@a@b@c@d@e@f@g@&+&+&+&+&+&+&+&+&+&+&+&+&+&+&+&+&+&+8.f+g+s+t+E+1+v+f.w+x+",
"l+m+y+o+z+a+b+D.m.&+&+&+&+&+&+&+&+&+&+&+&+&+&+&+&+&+0@h@i@j@k@l@m@n@&+&+&+&+&+&+&+&+&+&+&+&+&+&+&+&+&+&+8.f+g+s+t+E+1+v+f.w+x+",
"l+m+y+o+z+a+b+D.m.&+&+&+&+&+&+&+&+&+&+&+&+&+&+&+&+&+o@p@q@r@s@t@u@v@&+&+&+&+&+&+&+&+&+&+&+&+&+&+&+&+&+&+8.f+g+s+t+E+1+v+f.w+x+",
"l+m+y+o+z+a+b+D.m.&+&+&+&+&+&+&+&+&+&+&+&+&+&+&+&+&+o@w@x@y@z@A@B@C@&+&+&+&+&+&+&+&+&+&+&+&+&+&+&+&+&+&+8.f+g+s+t+E+1+v+f.w+x+",
"l+m+y+o+z+a+b+D.m.&+&+&+&+&+&+&+&+&+&+&+&+&+&+&+&+&+o@D@E@F@G@H@I@J@&+&+&+&+&+&+&+&+&+&+&+&+&+&+&+&+&+&+8.f+g+s+t+E+1+v+f.w+x+",
"l+m+y+o+z+a+b+D.m.&+&+&+&+&+&+&+&+&+&+&+&+&+&+&+&+&+K@L@M@N@O@P@Q@K@&+&+&+&+&+&+&+&+&+&+&+&+&+&+&+&+&+&+8.f+g+s+t+E+1+v+f.w+x+",
"l+m+y+o+z+a+b+D.m.&+&+&+&+&+&+&+&+&+&+&+&+&+&+&+&+&+&+R@S@T@U@V@W@&+&+&+&+&+&+&+&+&+&+&+&+&+&+&+&+&+&+&+8.f+g+s+t+E+1+v+f.w+x+",
"l+m+y+o+z+a+b+D.m.&+&+&+&+&+&+&+&+&+&+&+&+&+&+&+&+&+&+R@X@Y@Z@`@ #&+&+&+&+&+&+&+&+&+&+&+&+&+&+&+&+&+&+&+8.f+g+s+t+E+1+v+f.w+x+",
"l+m+y+o+z+a+b+D.m.&+&+&+&+&+&+&+&+&+&+&+&+&+&+&+&+&+&+.#+#@###$#R@&+&+&+&+&+&+&+&+&+&+&+&+&+&+&+&+&+&+&+8.f+g+s+t+E+1+v+f.w+x+",
"l+m+y+o+z+a+b+D.m.&+&+&+&+&+&+&+&+&+&+&+&+&+&+&+&+&+&+%#&#*#=#-#;#&+&+&+&+&+&+&+&+&+&+&+&+&+&+&+&+&+&+&+8.f+g+s+t+E+1+v+f.w+x+",
"l+m+y+o+z+a+b+D.m.&+&+&+&+&+&+&+&+&+&+&+&+&+&+&+&+&+&+&+>#,#'#)#C@&+&+&+&+&+&+&+&+&+&+&+&+&+&+&+&+&+&+&+8.f+g+s+t+E+1+v+f.w+x+",
"l+m+y+o+z+a+b+D.m.&+&+&+&+&+&+&+&+&+&+&+&+&+&+&+&+&+&+&+!#~#'#{#]#&+&+&+&+&+&+&+&+&+&+&+&+&+&+&+&+&+&+&+8.f+g+s+t+E+1+v+f.w+x+",
"l+m+y+o+z+a+b+D.m.&+&+&+&+&+&+&+&+&+&+&+&+&+&+&+&+&+&+&+^#/#(#_#:#&+&+&+&+&+&+&+&+&+&+&+&+&+&+&+&+&+&+&+8.f+g+s+t+E+1+v+f.w+x+",
"l+m+y+o+z+a+b+D.m.&+&+&+&+&+&+&+&+&+&+&+&+&+&+&+&+&+&+&+^#<#[#[#:#&+&+&+&+&+&+&+&+&+&+&+&+&+&+&+&+&+&+&+8.f+g+s+t+E+1+v+f.w+x+",
"l+m+y+o+z+a+b+D.m.&+&+&+&+&+&+&+&+&+&+&+&+&+&+&+&+&+&+&+^#}#[#|#1#&+&+&+&+&+&+&+&+&+&+&+&+&+&+&+&+&+&+&+8.f+g+s+t+E+1+v+f.w+x+",
"l+m+y+o+z+a+b+D.m.&+&+&+&+&+&+&+&+&+&+&+&+&+&+&+&+&+&+&+^#2#3#4#5#&+&+&+&+&+&+&+&+&+&+&+&+&+&+&+&+&+&+&+8.f+g+s+t+E+1+v+f.w+x+",
"l+m+y+o+z+a+b+D.m.&+&+&+&+&+&+&+&+&+&+&+&+&+&+&+&+&+&+&+^#6#7#8#9#&+&+&+&+&+&+&+&+&+&+&+&+&+&+&+&+&+&+&+8.f+g+s+t+E+1+v+f.w+x+",
"l+m+y+o+z+a+b+D.m.&+&+&+&+&+&+&+&+&+&+&+&+&+&+&+&+&+&+&+0#a#b#c#&+&+&+&+&+&+&+&+&+&+&+&+&+&+&+&+&+&+&+&+8.f+g+s+t+E+1+v+f.w+x+",
"l+m+y+o+z+a+b+D.m.&+&+&+&+&+&+&+&+&+&+&+&+&+&+&+&+&+&+&+d#e#f#g#&+&+&+&+&+&+&+&+&+&+&+&+&+&+&+&+&+&+&+&+8.f+g+s+t+E+1+v+f.w+x+",
"l+m+y+o+z+a+b+D.m.&+&+&+&+&+&+&+&+&+&+&+&+&+&+&+&+&+&+&+h#i#j#g#&+&+&+&+&+&+&+&+&+&+&+&+&+&+&+&+&+&+&+&+8.f+g+s+t+E+1+v+f.w+x+",
"l+m+y+o+z+a+b+D.m.&+&+&+&+&+&+&+&+&+&+&+&+&+&+&+&+&+&+&+h#k#l#m#&+&+&+&+&+&+&+&+&+&+&+&+&+&+&+&+&+&+&+&+8.f+g+s+t+E+1+v+f.w+x+",
"l+m+y+o+z+a+b+D.m.&+&+&+&+&+&+&+&+&+&+&+&+&+&+&+&+&+&+&+h#n#o#p#&+&+&+&+&+&+&+&+&+&+&+&+&+&+&+&+&+&+&+&+8.f+g+s+t+E+1+v+f.w+x+",
"l+m+y+o+z+a+b+D.m.&+&+&+&+&+&+&+&+&+&+&+&+&+&+&+&+&+&+&+q#r#s#t#&+&+&+&+&+&+&+&+&+&+&+&+&+&+&+&+&+&+&+&+8.f+g+s+t+E+1+v+f.w+x+",
"l+m+y+o+z+a+b+D.m.&+&+&+&+&+&+&+&+&+&+&+&+&+&+&+&+&+&+&+q#r#u#v#&+&+&+&+&+&+&+&+&+&+&+&+&+&+&+&+&+&+&+&+8.f+g+s+t+E+1+v+f.w+x+",
"l+m+n+o+0+a+b+D.m.&+&+&+&+&+&+&+&+&+&+&+&+&+&+&+&+&+&+&+q#r#u#v#&+&+&+&+&+&+&+&+&+&+&+&+&+&+&+&+&+&+&+&+8.f+g+w#x#y#z#`.f.w+x+",
"~+A#B#9+0+a+b+D.m.&+&+&+&+&+&+&+&+&+&+&+&+&+&+&+&+&+&+&+q#C#D#E#&+&+&+&+&+&+&+&+&+&+&+&+&+&+&+&+&+&+&+&+8.f+F#G#H#I#J#K#6+k+w.",
"N.{+I#K L#M#6.D.m.&+&+&+&+&+&+&+&+&+&+&+&+&+&+&+&+&+&+&+L@N#O#P#.#&+&+&+&+&+&+&+&+&+&+&+&+&+&+&+&+&+&+m.8.f+Q#R#S#T#U#K#x.V#w.",
"z#| W#X#$.Y#m.D.m.&+&+&+&+&+&+&+&+&+&+&+&+&+&+&+&+&+&+&+&+&+&+&+&+&+&+&+&+&+&+&+&+&+&+&+&+&+&+&+&+&+&+Z#`#f+ $.$+$Y.@$#$x.V#/.",
"z#1 $$%$&$*$0@D.K@=$n.-$-$-$-$-$-$-$-$-$-$-$-$-$-$-$-$-$-$-$-$-$-$-$-$-$-$-$-$-$-$-$-$-$-$-$-$-$-$-$n.;$>$f+,$'$)$!$~${$]$V#M.",
"^$/$($_$:$<$[$2.$+8.}$>$>$>$>$>$>$>$>$>$>$>$>$>$>$>$>$>$>$>$>$>$>$>$>$>$>$>$>$>$>$>$>$>$>$>$>$>$>$>$|$1$2$3$4$5$6$7$8$9$0$a$b$",
"c$V#d$e$f$g$h$i$j$k$l$:+:+:+:+:+:+:+:+:+:+:+:+:+:+:+:+:+:+:+:+:+:+:+:+:+:+:+:+:+:+:+:+:+:+:+:+:+:+:+m$n$o$p$q$r$s$t$u$v$w$x$y$",
"z$A$B$C$D$E$F$G$H$I$J$J$J$J$J$J$J$J$J$J$J$J$J$J$J$J$J$J$J$J$J$J$J$J$J$J$J$J$J$J$J$J$J$J$J$J$J$J$J$J$K$L$M$N$O$P$Q$R$S$T$U$V$W$",
"X$~.Y$Z$`$ %.%+%@%5$#%#%$%$%$%$%$%$%$%$%$%$%$%$%$%$%$%$%$%$%$%$%$%$%$%$%$%$%$%$%$%$%$%$%$%$%$%$%#%#%%%&%*%=%-%;%>%,%'%)%!%~%* ",
"{%]%^%/%(%_%:%<%[%}%|%1%1%2%2%2%2%2%2%2%2%2%2%2%2%2%2%2%2%2%2%2%2%2%2%2%2%2%2%2%2%2%2%2%2%2%2%2%1%}%3%4%5%6%|+7%8%9%0%a%b%c%d%",
"e%f%g%h%i%j%k%M.l%m%n%o%p%p%p%p%p%p%p%p%p%p%p%p%p%p%p%p%p%p%p%p%p%p%p%p%p%p%p%p%p%p%p%p%p%p%p%p%o%m%3 /.q%r%s%t%u%v%w%x%y%z%A%",
"    B%C%D%E%F%G%H%v+l+N.I%h%h%J%J%J%J%J%J%J%J%J%J%J%J%J%J%J%J%J%J%J%J%J%J%J%J%J%J%J%J%J%J%J%h%h%K%L%v+M%v+N%O%P%Q%R%S%        ",
"    T%U%V%W%X%Y%Z%`% &.&+&+&+&+&+&+&+&+&+&+&+&+&+&+&+&+&+&+&+&+&+&+&+&+&+&+&+&+&+&+&+&+&+&+&+&+&.&@&#&$&+&%&&&*&=&-&;&        ",
"    >&,&'&)&I%t.1+t.I%~+l+l+l+l+l+l+l+l+l+l+l+l+l+l+l+l+l+l+l+l+l+l+l+l+l+l+l+l+l+l+l+l+l+l+l+l+l+* i%!&!&l+A%~&{&]&^&        ",
"    /&(&_&:&<&[&}&[&V#|&- 1&1&1&1&1&1&1&1&1&1&1&1&1&1&1&1&1&1&1&1&1&1&1&1&1&1&1&1&1&1&1&1&1&1&1&1&2&k%3&g.4&J#5&6&7&8&        "};
