/* XPM */
static char * torch2_wall2_xpm[] = {
"63 63 708 2",
"  	c None",
". 	c #516C75",
"+ 	c #49636D",
"@ 	c #37515C",
"# 	c #2A4350",
"$ 	c #273F4C",
"% 	c #263E4B",
"& 	c #253D4A",
"* 	c #28404D",
"= 	c #28414E",
"- 	c #29424F",
"; 	c #304A56",
"> 	c #3E5964",
", 	c #516770",
"' 	c #556971",
") 	c #4A656F",
"! 	c #435E68",
"~ 	c #36525E",
"{ 	c #2D4A58",
"] 	c #2C4857",
"^ 	c #2E4958",
"/ 	c #324C5A",
"( 	c #354E5B",
"_ 	c #364E5B",
": 	c #364D5A",
"< 	c #354D5A",
"[ 	c #37505D",
"} 	c #38515E",
"| 	c #37515E",
"1 	c #344F5C",
"2 	c #304B59",
"3 	c #324E5C",
"4 	c #3C5864",
"5 	c #445E69",
"6 	c #496069",
"7 	c #4E636C",
"8 	c #4A656E",
"9 	c #3F5A65",
"0 	c #395662",
"a 	c #395866",
"b 	c #3B5A69",
"c 	c #3F5D6C",
"d 	c #476271",
"e 	c #506A77",
"f 	c #546C78",
"g 	c #556B77",
"h 	c #556A76",
"i 	c #546975",
"j 	c #566C79",
"k 	c #566E7A",
"l 	c #556E7A",
"m 	c #506B77",
"n 	c #466270",
"o 	c #3D5B6A",
"p 	c #3A5866",
"q 	c #395562",
"r 	c #39515C",
"s 	c #435A64",
"t 	c #57717A",
"u 	c #59747E",
"v 	c #435D68",
"w 	c #304A57",
"x 	c #445F69",
"y 	c #385461",
"z 	c #435D6A",
"A 	c #5A7380",
"B 	c #6C838F",
"C 	c #798F99",
"D 	c #8599A2",
"E 	c #8FA2AA",
"F 	c #95A7AD",
"G 	c #98A8AE",
"H 	c #99A8AE",
"I 	c #99A7AD",
"J 	c #98A7AD",
"K 	c #99A9AF",
"L 	c #98A9B0",
"M 	c #97A9AF",
"N 	c #8FA3AA",
"O 	c #80959E",
"P 	c #6C828D",
"Q 	c #516B79",
"R 	c #395665",
"S 	c #2F4A57",
"T 	c #3A535D",
"U 	c #4F6A73",
"V 	c #516C76",
"W 	c #3F5964",
"X 	c #304A58",
"Y 	c #3D5761",
"Z 	c #395560",
"` 	c #375562",
" .	c #59717D",
"..	c #8196A0",
"+.	c #9BAFB7",
"@.	c #AFC1C7",
"#.	c #BECFD3",
"$.	c #CAD9DC",
"%.	c #D1DFE1",
"&.	c #D5E1E4",
"*.	c #D6E2E4",
"=.	c #D6E3E4",
"-.	c #D4E2E4",
";.	c #D2E2E3",
">.	c #C9DADD",
",.	c #B6C8CD",
"'.	c #9AADB5",
").	c #708792",
"!.	c #446171",
"~.	c #334C57",
"{.	c #3F5963",
"].	c #415B66",
"^.	c #37525E",
"/.	c #2F4B59",
"(.	c #314A55",
"_.	c #304C59",
":.	c #395766",
"<.	c #69808B",
"[.	c #B9CAD0",
"}.	c #CDDEE1",
"|.	c #DBEAEC",
"1.	c #E3F1F2",
"2.	c #E8F6F6",
"3.	c #EBF8F9",
"4.	c #ECF9FA",
"5.	c #ECF9F9",
"6.	c #EBF9F9",
"7.	c #E9F8F8",
"8.	c #E1F1F2",
"9.	c #D1E2E5",
"0.	c #B5C7CD",
"a.	c #849AA4",
"b.	c #506C7C",
"c.	c #365361",
"d.	c #2E4753",
"e.	c #334D58",
"f.	c #2A414D",
"g.	c #2D4856",
"h.	c #768C96",
"i.	c #ACBEC3",
"j.	c #CBDBDF",
"k.	c #DEEDEE",
"l.	c #E7F5F6",
"m.	c #E9F7F7",
"n.	c #E6F5F6",
"o.	c #DCEDEE",
"p.	c #C3D6DA",
"q.	c #92A8B0",
"r.	c #5B7685",
"s.	c #3C5766",
"t.	c #2C4551",
"u.	c #2B4450",
"v.	c #2D4956",
"w.	c #2E4B59",
"x.	c #283F4B",
"y.	c #456170",
"z.	c #81969F",
"A.	c #B9CACF",
"B.	c #D7E6E9",
"C.	c #E6F4F5",
"D.	c #EAF8F8",
"E.	c #DCEEF0",
"F.	c #C5D9DD",
"G.	c #96ADB6",
"H.	c #627E8B",
"I.	c #415C6A",
"J.	c #253C47",
"K.	c #273E4A",
"L.	c #2B4653",
"M.	c #2E4A58",
"N.	c #2A424E",
"O.	c #344E5C",
"P.	c #4E6976",
"Q.	c #8A9EA7",
"R.	c #C3D3D7",
"S.	c #DEEDEF",
"T.	c #E3F3F4",
"U.	c #D6E9EC",
"V.	c #BDD4D9",
"W.	c #95AEB7",
"X.	c #698591",
"Y.	c #47616D",
"Z.	c #233A45",
"`.	c #253C48",
" +	c #2A4552",
".+	c #2D4957",
"++	c #38515D",
"@+	c #93A5AC",
"#+	c #CCDBDE",
"$+	c #E4F3F4",
"%+	c #E9F7F8",
"&+	c #E8F7F7",
"*+	c #E2F2F3",
"=+	c #D1E5E8",
"-+	c #B9D1D7",
";+	c #9AB3BC",
">+	c #76909B",
",+	c #506974",
"'+	c #263D48",
")+	c #2B4552",
"!+	c #2D4958",
"~+	c #29414D",
"{+	c #3A515D",
"]+	c #5B707B",
"^+	c #9AAAB0",
"/+	c #D4E2E3",
"(+	c #EBF8F8",
"_+	c #E1F2F2",
":+	c #CFE3E6",
"<+	c #B9D0D7",
"[+	c #A2BBC3",
"}+	c #859DA7",
"|+	c #5A707B",
"1+	c #2D4652",
"2+	c #243C47",
"3+	c #273F4B",
"4+	c #2C4654",
"5+	c #2E4A59",
"6+	c #29404C",
"7+	c #3B515C",
"8+	c #5D717B",
"9+	c #9DACB1",
"0+	c #D8E4E5",
"a+	c #EDFAFA",
"b+	c #ECFAFA",
"c+	c #CEE2E6",
"d+	c #B9D0D6",
"e+	c #A6BEC6",
"f+	c #8AA2AB",
"g+	c #5D747D",
"h+	c #2C4755",
"i+	c #28404C",
"j+	c #3A505C",
"k+	c #5C707A",
"l+	c #9DABB0",
"m+	c #E9EFEC",
"n+	c #F0B18B",
"o+	c #EAE2D9",
"p+	c #A5BEC5",
"q+	c #8AA2AA",
"r+	c #5D737D",
"s+	c #253D49",
"t+	c #2D4755",
"u+	c #2F4B5A",
"v+	c #5C6F79",
"w+	c #D7E4E5",
"x+	c #E9F2F0",
"y+	c #EEB999",
"z+	c #EC995A",
"A+	c #E9E1D8",
"B+	c #E8F3F2",
"C+	c #ECD6C7",
"D+	c #E9EEEB",
"E+	c #5D737C",
"F+	c #EBDDD2",
"G+	c #F1974A",
"H+	c #F39C4F",
"I+	c #EFB591",
"J+	c #EEC0A5",
"K+	c #EDC1A7",
"L+	c #E9F0EE",
"M+	c #E8F5F5",
"N+	c #EDBD9F",
"O+	c #F19943",
"P+	c #F49B43",
"Q+	c #F29337",
"R+	c #EDC8B2",
"S+	c #EDC3AA",
"T+	c #E9ECE8",
"U+	c #E8E8E2",
"V+	c #EE974A",
"W+	c #F19942",
"X+	c #ED9E64",
"Y+	c #E9EEEA",
"Z+	c #EBDFD5",
"`+	c #F09E62",
" @	c #E9EDE9",
".@	c #E8E8E3",
"+@	c #EA9143",
"@@	c #EF953D",
"#@	c #EDA779",
"$@	c #ECD4C5",
"%@	c #E8F4F2",
"&@	c #EBD8CA",
"*@	c #F09D5F",
"=@	c #E8F5F4",
"-@	c #E8EFED",
";@	c #E9B18E",
">@	c #EA9043",
",@	c #E9D5C8",
"'@	c #EAE8E2",
")@	c #EEBB9D",
"!@	c #EBDBCF",
"~@	c #F19F60",
"{@	c #EEBA9B",
"]@	c #E9D7CA",
"^@	c #E8DACF",
"/@	c #E0CEC2",
"(@	c #E1E1DB",
"_@	c #EBC8B2",
":@	c #F1923D",
"<@	c #F1974C",
"[@	c #F2963C",
"}@	c #EBD8CB",
"|@	c #E8F7F6",
"1@	c #D3D7D2",
"2@	c #CC8A55",
"3@	c #C27729",
"4@	c #E88D2F",
"5@	c #F19334",
"6@	c #F09236",
"7@	c #EC8D34",
"8@	c #E9DACE",
"9@	c #E2E1DA",
"0@	c #EE9C4F",
"a@	c #F1962E",
"b@	c #ED932C",
"c@	c #F29A38",
"d@	c #F6A146",
"e@	c #EF973F",
"f@	c #E9C3AD",
"g@	c #E5F2F2",
"h@	c #E1B89D",
"i@	c #F29B3A",
"j@	c #F59F3B",
"k@	c #F59D37",
"l@	c #F7A23F",
"m@	c #F6A041",
"n@	c #E99A59",
"o@	c #E7EAE6",
"p@	c #D7E2E1",
"q@	c #DA9E6E",
"r@	c #F09D39",
"s@	c #F6A540",
"t@	c #F7A540",
"u@	c #F3A33F",
"v@	c #DA913A",
"w@	c #BCA898",
"x@	c #E0EFEE",
"y@	c #D5E2E1",
"z@	c #B4916D",
"A@	c #BB812D",
"B@	c #DD9538",
"C@	c #E19839",
"D@	c #C1862E",
"E@	c #B38F64",
"F@	c #D0DBD9",
"G@	c #E7F6F6",
"H@	c #D7E4E4",
"I@	c #A58E72",
"J@	c #9D7027",
"K@	c #A67627",
"L@	c #A97827",
"M@	c #A27427",
"N@	c #A7947C",
"O@	c #E2F0EF",
"P@	c #E5F4F4",
"Q@	c #999A92",
"R@	c #77551D",
"S@	c #8C6422",
"T@	c #916825",
"U@	c #805C20",
"V@	c #70614E",
"W@	c #C8D4D3",
"X@	c #C6D0CE",
"Y@	c #644D30",
"Z@	c #664818",
"`@	c #72511C",
" #	c #70501B",
".#	c #60461D",
"+#	c #B7C1BF",
"@#	c #D6E3E2",
"##	c #604F37",
"$#	c #674919",
"%#	c #694B18",
"&#	c #6C4D1A",
"*#	c #5E451B",
"=#	c #B8C1BF",
"-#	c #CFDBDA",
";#	c #614E35",
">#	c #6C4D19",
",#	c #684A19",
"'#	c #6D4E1B",
")#	c #59431E",
"!#	c #B9C2C0",
"~#	c #614A2A",
"{#	c #6C4E19",
"]#	c #6D4D1B",
"^#	c #533F1F",
"/#	c #604A2A",
"(#	c #624518",
"_#	c #6C4C1B",
":#	c #60451D",
"<#	c #473A20",
"[#	c #B8C1C0",
"}#	c #BFC9C7",
"|#	c #5C4629",
"1#	c #5F4318",
"2#	c #64471A",
"3#	c #66481B",
"4#	c #8F918B",
"5#	c #DAE8E8",
"6#	c #E0EEED",
"7#	c #999B96",
"8#	c #593F17",
"9#	c #5F4418",
"0#	c #654D2E",
"a#	c #CDD8D7",
"b#	c #BAC2BF",
"c#	c #563D18",
"d#	c #5C4119",
"e#	c #A1A39D",
"f#	c #E5F3F3",
"g#	c #BAC1BF",
"h#	c #664A1A",
"i#	c #5A4019",
"j#	c #827B6F",
"k#	c #DAE6E5",
"l#	c #B8C1BE",
"m#	c #553D17",
"n#	c #5A401A",
"o#	c #5E431B",
"p#	c #CFDAD9",
"q#	c #B7C0BE",
"r#	c #503918",
"s#	c #5B401A",
"t#	c #503919",
"u#	c #583F1B",
"v#	c #8B8880",
"w#	c #DCEAE9",
"x#	c #4A3517",
"y#	c #533B19",
"z#	c #6D5F4E",
"A#	c #D4DFDE",
"B#	c #C2CDCC",
"C#	c #716E67",
"D#	c #553B1A",
"E#	c #979893",
"F#	c #E2F0F0",
"G#	c #D4E1E1",
"H#	c #8B8E8A",
"I#	c #573D1B",
"J#	c #AAAEAA",
"K#	c #9BA09D",
"L#	c #583D1B",
"M#	c #583E1B",
"N#	c #ABAEAA",
"O#	c #543C1C",
"P#	c #523B1C",
"Q#	c #A8AEAB",
"R#	c #6F665B",
"S#	c #DAE7E6",
"T#	c #726A60",
"U#	c #DEEBEB",
"V#	c #A4BDC4",
"W#	c #89A1A9",
"X#	c #5C727C",
"Y#	c #2D4551",
"Z#	c #3B515D",
"`#	c #5C707B",
" $	c #9BA19E",
".$	c #6C6358",
"+$	c #D6E2E2",
"@$	c #B8CFD6",
"#$	c #A2BAC2",
"$$	c #859DA6",
"%$	c #596F7A",
"&$	c #2C4450",
"*$	c #243B47",
"=$	c #D4E1E3",
"-$	c #EAF7F8",
";$	c #CFDCDB",
">$	c #868984",
",$	c #4C361A",
"'$	c #6F6A62",
")$	c #B6CED4",
"!$	c #9BB4BD",
"~$	c #7B949F",
"{$	c #536A75",
"]$	c #2B4350",
"^$	c #2C4754",
"/$	c #526B77",
"($	c #90A2AA",
"_$	c #E3F1F3",
":$	c #E9F8F7",
"<$	c #E1F2F3",
"[$	c #B3CBD2",
"}$	c #8FA8B3",
"|$	c #688390",
"1$	c #2B4550",
"2$	c #253D48",
"3$	c #4B6673",
"4$	c #889CA4",
"5$	c #C1D2D6",
"6$	c #DCECEE",
"7$	c #E7F5F5",
"8$	c #E6F6F6",
"9$	c #E5F5F6",
"0$	c #E5F5F5",
"a$	c #DFF0F1",
"b$	c #B3CAD1",
"c$	c #89A2AE",
"d$	c #5D7988",
"e$	c #405B69",
"f$	c #2C4651",
"g$	c #273F4A",
"h$	c #29414C",
"i$	c #29424D",
"j$	c #2F4B58",
"k$	c #45616F",
"l$	c #82979F",
"m$	c #BBCDD1",
"n$	c #D8E8EB",
"o$	c #E5F3F4",
"p$	c #DFF1F2",
"q$	c #DEF0F1",
"r$	c #DDEFF0",
"s$	c #D8EAED",
"t$	c #CCE1E5",
"u$	c #B5CCD3",
"v$	c #8EA7B1",
"w$	c #647F8C",
"x$	c #445E6B",
"y$	c #2D4752",
"z$	c #2A434D",
"A$	c #2C444F",
"B$	c #2C4653",
"C$	c #2C4856",
"D$	c #28404B",
"E$	c #3F5B69",
"F$	c #778C95",
"G$	c #ABBEC4",
"H$	c #C9DADE",
"I$	c #D8E8EA",
"J$	c #DBEBED",
"K$	c #D6E7E9",
"L$	c #D2E4E7",
"M$	c #D0E3E6",
"N$	c #CEE2E5",
"O$	c #CBE0E3",
"P$	c #C7DCE1",
"Q$	c #C1D7DC",
"R$	c #B0C6CD",
"S$	c #8BA3AC",
"T$	c #637C89",
"U$	c #445D69",
"V$	c #304954",
"W$	c #304953",
"X$	c #314A53",
"Y$	c #2D4653",
"Z$	c #2A4452",
"`$	c #2B434D",
" %	c #2D4753",
".%	c #375360",
"+%	c #607783",
"@%	c #8BA0A9",
"#%	c #A7BCC2",
"$%	c #BACDD2",
"%%	c #BED2D6",
"&%	c #B8CCD2",
"*%	c #B3CAD0",
"=%	c #B2C9D0",
"-%	c #B0C7CF",
";%	c #ABC3CB",
">%	c #A8C1C9",
",%	c #A9C0C7",
"'%	c #9CB3BA",
")%	c #788F9A",
"!%	c #516B78",
"~%	c #3D5763",
"{%	c #354F59",
"]%	c #39525B",
"^%	c #37515A",
"/%	c #2E4752",
"(%	c #28404E",
"_%	c #364D56",
":%	c #334D5A",
"<%	c #49616E",
"[%	c #667E89",
"}%	c #7F96A0",
"|%	c #93A9B1",
"1%	c #98AEB6",
"2%	c #92A9B2",
"3%	c #8EA8B2",
"4%	c #8EA8B3",
"5%	c #8BA5AF",
"6%	c #85A0AB",
"7%	c #839EA9",
"8%	c #89A1AA",
"9%	c #8197A0",
"0%	c #607883",
"a%	c #405B68",
"b%	c #3A5560",
"c%	c #3F5861",
"d%	c #476068",
"e%	c #445D65",
"f%	c #354C56",
"g%	c #445C64",
"h%	c #3E5760",
"i%	c #344D58",
"j%	c #364F5C",
"k%	c #445C69",
"l%	c #546B76",
"m%	c #617782",
"n%	c #657C87",
"o%	c #637C87",
"p%	c #617C88",
"q%	c #627C89",
"r%	c #627D8A",
"s%	c #627E8A",
"t%	c #5F7985",
"u%	c #597481",
"v%	c #58727F",
"w%	c #5D7681",
"x%	c #475E6A",
"y%	c #39535E",
"z%	c #3F5962",
"A%	c #4B656C",
"B%	c #577177",
"C%	c #546D73",
"D%	c #3E565E",
"E%	c #2D444F",
"F%	c #4B646C",
"G%	c #435B64",
"H%	c #344C56",
"I%	c #2B444F",
"J%	c #29414E",
"K%	c #294250",
"L%	c #2B4553",
"M%	c #324F5D",
"N%	c #355260",
"O%	c #365362",
"P%	c #375463",
"Q%	c #385564",
"R%	c #2F4A58",
"S%	c #334E5B",
"T%	c #36505C",
"U%	c #374F5A",
"V%	c #3D545D",
"W%	c #486067",
"X%	c #536C72",
"Y%	c #5F787E",
"Z%	c #5C757A",
"`%	c #445B63",
" &	c #2F4651",
".&	c #344A53",
"+&	c #2D434C",
"@&	c #243A45",
"#&	c #1E3540",
"$&	c #1C3440",
"%&	c #1E3642",
"&&	c #213A46",
"*&	c #2A434F",
"=&	c #2B434F",
"-&	c #2A434E",
";&	c #27404C",
">&	c #233B47",
",&	c #2B434E",
"'&	c #334B54",
")&	c #3D535C",
"!&	c #475D64",
"~&	c #52686D",
"{&	c #596F74",
"]&	c #3B525B",
"^&	c #364C55",
"/&	c #2A404A",
"(&	c #233842",
"_&	c #223742",
":&	c #233843",
"<&	c #243944",
"[&	c #263B45",
"}&	c #273C47",
"|&	c #283D47",
"1&	c #283E48",
"2&	c #263B46",
"3&	c #253A45",
"4&	c #263C46",
"5&	c #2B414A",
"6&	c #344A52",
"7&	c #40575F",
"8&	c #4C6269",
"9&	c #556B71",
"0&	c #5A6F74",
"a&	c #47626D",
"b&	c #405B65",
"c&	c #324B57",
"d&	c #29424E",
"e&	c #2B4451",
"f&	c #3E5660",
"g&	c #4A626B",
"h&	c #526971",
"i&	c #566C73",
"j&	c #4D6A75",
"k&	c #45626D",
"l&	c #36515D",
"m&	c #2D4855",
"n&	c #2E4956",
"o&	c #304B58",
"p&	c #314D5A",
"q&	c #2A4451",
"r&	c #28424F",
"s&	c #294351",
"t&	c #2E4957",
"u&	c #27404D",
"v&	c #3D5660",
"w&	c #49626C",
"x&	c #506871",
"y&	c #546A73",
"    . + @ # $ % & % * * = = = = = = = = = = = = = = = = = = = = = = = = = = = = = = = = = = = = = - # - = = ; > + , '         ",
"    ) ! ~ { ] ^ / ( _ : : : : : : : : : : : : : : : : : : : : : : : : : : : : : : : : : : : : < _ [ } | 1 2 3 4 5 6 7         ",
". 8 9 0 a b c d e f g h i i i i i i i i i i i i i i i i i i i i i i i i i i i i i i i i i i i i h j k l m n o p q r s t u v w ",
"8 x y z A B C D E F G H I J J J J J J J J J J J J J J J J J J J J J J J J J J J J J J J J J J J I K L M N O P Q R S T U V W X ",
"Y Z `  ...+.@.#.$.%.&.*.*.*.*.*.*.*.*.*.*.*.*.*.*.*.*.*.*.*.*.*.*.*.*.*.*.*.*.*.*.*.*.*.*.*.*.*.*.=.-.;.>.,.'.).!.3 ~.{.].^./.",
"(._.:.<.'.[.}.|.1.2.3.4.4.4.4.4.4.4.4.4.4.4.4.4.4.4.4.4.4.4.4.4.4.4.4.4.4.4.4.4.4.4.4.4.4.4.4.4.4.5.6.7.8.9.0.a.b.c.d.(.e._./.",
"f.g.o h.i.j.k.l.m.3.6.4.4.4.4.4.4.4.4.4.4.4.4.4.4.4.4.4.4.4.4.4.4.4.4.4.4.4.4.4.4.4.4.4.4.4.4.4.4.5.6.6.n.o.p.q.r.s.t.f.u.v.w.",
"x.S y.z.A.B.C.5.6.D.D.D.D.D.D.D.D.D.D.D.D.D.D.D.D.D.D.D.D.D.D.D.D.D.D.D.D.D.D.D.D.D.D.D.D.D.D.D.D.D.D.D.n.E.F.G.H.I.u.J.K.L.M.",
"N.O.P.Q.R.S.2.6.7.m.m.m.m.m.m.m.m.m.m.m.m.m.m.m.m.m.m.m.m.m.m.m.m.m.m.m.m.m.m.m.m.m.m.m.m.m.m.m.m.m.m.7.T.U.V.W.X.Y.u.Z.`. +.+",
"N.++l @+#+$+%+D.m.&+&+&+&+&+&+&+&+&+&+&+&+&+&+&+&+&+&+&+&+&+&+&+&+&+&+&+&+&+&+&+&+&+&+&+&+&+&+&+&+&+&+&+*+=+-+;+>+,+t.Z.'+)+!+",
"~+{+]+^+/+(+6.D.m.&+&+&+&+&+&+&+&+&+&+&+&+&+&+&+&+&+&+&+&+&+&+&+&+&+&+&+&+&+&+&+&+&+&+&+&+&+&+&+&+&+&+&+_+:+<+[+}+|+1+2+3+4+5+",
"6+7+8+9+0+a+b+D.m.&+&+&+&+&+&+&+&+&+&+&+&+&+&+&+&+&+&+&+&+&+&+&+&+&+&+&+&+&+&+&+&+&+&+&+&+&+&+&+&+&+&+&+8.c+d+e+f+g+1+`.6+h+5+",
"i+j+k+l+0+a+b+D.m.&+&+&+&+&+&+&+&+&+&+&+&+&+&+&+&+m+n+o+&+&+&+&+&+&+&+&+&+&+&+&+&+&+&+&+&+&+&+&+&+&+&+&+8.c+d+p+q+r+1+s+f.t+u+",
"i+j+v+l+w+a+b+D.m.&+&+&+&+&+&+&+&+&+&+&+&+&+&+&+&+x+y+z+A+&+B+C+D+&+&+&+&+&+&+&+&+&+&+&+&+&+&+&+&+&+&+&+8.c+d+p+q+E+1+s+f.t+u+",
"i+j+v+l+w+a+b+D.m.&+&+&+&+&+&+&+&+&+&+&+&+&+&+&+&+&+F+G+H+I+J+K+2.&+&+L+M+&+&+&+&+&+&+&+&+&+&+&+&+&+&+&+8.c+d+p+q+E+1+s+f.t+u+",
"i+j+v+l+w+a+b+D.m.&+&+&+&+&+&+&+&+&+&+&+&+&+&+&+&+&+2.N+O+P+Q+R+&+&+2.S+T+&+&+&+&+&+&+&+&+&+&+&+&+&+&+&+8.c+d+p+q+E+1+s+f.t+u+",
"i+j+v+l+w+a+b+D.m.&+&+&+&+&+&+&+&+&+&+&+&+&+&+&+&+&+&+U+V+W+X+Y+M+&+Z+`+ @&+&+&+&+&+&+&+&+&+&+&+&+&+&+&+8.c+d+p+q+E+1+s+f.t+u+",
"i+j+v+l+w+a+b+D.m.&+&+&+&+&+&+&+&+&+&+&+&+&+&+&+&+&+&+.@+@@@#@m+$@%@&@*@ @&+&+&+&+&+&+&+&+&+&+&+&+&+&+&+8.c+d+p+q+E+1+s+f.t+u+",
"i+j+v+l+w+a+b+D.m.&+&+&+&+&+&+&+&+&+&+&+&+&+&+&+&+2.=@-@;@>@,@'@)@!@~@{@x+&+&+&+&+&+&+&+&+&+&+&+&+&+&+&+8.c+d+p+q+E+1+s+f.t+u+",
"i+j+v+l+w+a+b+D.m.&+&+&+&+&+&+&+&+&+&+&+&+&+&+&+&+-@]@&+^@/@(@_@:@<@[@}@&+&+&+&+&+&+&+&+&+&+&+&+&+&+&+&+8.c+d+p+q+E+1+s+f.t+u+",
"i+j+v+l+w+a+b+D.m.&+&+&+&+&+&+&+&+&+&+&+&+&+&+&+&+&+&+|@1@2@3@4@5@6@7@8@&+&+&+&+&+&+&+&+&+&+&+&+&+&+&+&+8.c+d+p+q+E+1+s+f.t+u+",
"i+j+v+l+w+a+b+D.m.&+&+&+&+&+&+&+&+&+&+&+&+&+&+&+&+&+&+9@0@a@b@c@d@e@f@=@&+&+&+&+&+&+&+&+&+&+&+&+&+&+&+&+8.c+d+p+q+E+1+s+f.t+u+",
"i+j+v+l+w+a+b+D.m.&+&+&+&+&+&+&+&+&+&+&+&+&+&+&+&+&+g@h@i@j@k@l@m@n@o@&+&+&+&+&+&+&+&+&+&+&+&+&+&+&+&+&+8.c+d+p+q+E+1+s+f.t+u+",
"i+j+v+l+w+a+b+D.m.&+&+&+&+&+&+&+&+&+&+&+&+&+&+&+&+&+p@q@r@s@t@u@v@w@x@&+&+&+&+&+&+&+&+&+&+&+&+&+&+&+&+&+8.c+d+p+q+E+1+s+f.t+u+",
"i+j+v+l+w+a+b+D.m.&+&+&+&+&+&+&+&+&+&+&+&+&+&+&+&+&+y@z@A@B@C@D@E@F@G@&+&+&+&+&+&+&+&+&+&+&+&+&+&+&+&+&+8.c+d+p+q+E+1+s+f.t+u+",
"i+j+v+l+w+a+b+D.m.&+&+&+&+&+&+&+&+&+&+&+&+&+&+&+&+&+H@I@J@K@L@M@N@O@&+&+&+&+&+&+&+&+&+&+&+&+&+&+&+&+&+&+8.c+d+p+q+E+1+s+f.t+u+",
"i+j+v+l+w+a+b+D.m.&+&+&+&+&+&+&+&+&+&+&+&+&+&+&+&+&+P@Q@R@S@T@U@V@W@&+&+&+&+&+&+&+&+&+&+&+&+&+&+&+&+&+&+8.c+d+p+q+E+1+s+f.t+u+",
"i+j+v+l+w+a+b+D.m.&+&+&+&+&+&+&+&+&+&+&+&+&+&+&+&+&+&+X@Y@Z@`@ #.#+#&+&+&+&+&+&+&+&+&+&+&+&+&+&+&+&+&+&+8.c+d+p+q+E+1+s+f.t+u+",
"i+j+v+l+w+a+b+D.m.&+&+&+&+&+&+&+&+&+&+&+&+&+&+&+&+&+&+@###$#%#&#*#=#&+&+&+&+&+&+&+&+&+&+&+&+&+&+&+&+&+&+8.c+d+p+q+E+1+s+f.t+u+",
"i+j+v+l+w+a+b+D.m.&+&+&+&+&+&+&+&+&+&+&+&+&+&+&+&+&+&+-#;#>#,#'#)#+#&+&+&+&+&+&+&+&+&+&+&+&+&+&+&+&+&+&+8.c+d+p+q+E+1+s+f.t+u+",
"i+j+v+l+w+a+b+D.m.&+&+&+&+&+&+&+&+&+&+&+&+&+&+&+&+&+G@!#~#{#,#]#^#+#&+&+&+&+&+&+&+&+&+&+&+&+&+&+&+&+&+&+8.c+d+p+q+E+1+s+f.t+u+",
"i+j+v+l+w+a+b+D.m.&+&+&+&+&+&+&+&+&+&+&+&+&+&+&+&+&+G@!#/#(#_#:#<#[#&+&+&+&+&+&+&+&+&+&+&+&+&+&+&+&+&+&+8.c+d+p+q+E+1+s+f.t+u+",
"i+j+v+l+w+a+b+D.m.&+&+&+&+&+&+&+&+&+&+&+&+&+&+&+&+&+G@}#|#1#2#3#4#5#&+&+&+&+&+&+&+&+&+&+&+&+&+&+&+&+&+&+8.c+d+p+q+E+1+s+f.t+u+",
"i+j+v+l+w+a+b+D.m.&+&+&+&+&+&+&+&+&+&+&+&+&+&+&+&+&+&+6#7#8#9#0#a#&+&+&+&+&+&+&+&+&+&+&+&+&+&+&+&+&+&+&+8.c+d+p+q+E+1+s+f.t+u+",
"i+j+v+l+w+a+b+D.m.&+&+&+&+&+&+&+&+&+&+&+&+&+&+&+&+&+&+&+b#c#d#e#f#&+&+&+&+&+&+&+&+&+&+&+&+&+&+&+&+&+&+&+8.c+d+p+q+E+1+s+f.t+u+",
"i+j+v+l+w+a+b+D.m.&+&+&+&+&+&+&+&+&+&+&+&+&+&+&+&+&+&+&+g#h#i#j#k#&+&+&+&+&+&+&+&+&+&+&+&+&+&+&+&+&+&+&+8.c+d+p+q+E+1+s+f.t+u+",
"i+j+v+l+w+a+b+D.m.&+&+&+&+&+&+&+&+&+&+&+&+&+&+&+&+&+&+&+l#m#n#o#p#&+&+&+&+&+&+&+&+&+&+&+&+&+&+&+&+&+&+&+8.c+d+p+q+E+1+s+f.t+u+",
"i+j+v+l+w+a+b+D.m.&+&+&+&+&+&+&+&+&+&+&+&+&+&+&+&+&+&+&+q#r#n#s#p#&+&+&+&+&+&+&+&+&+&+&+&+&+&+&+&+&+&+&+8.c+d+p+q+E+1+s+f.t+u+",
"i+j+v+l+w+a+b+D.m.&+&+&+&+&+&+&+&+&+&+&+&+&+&+&+&+&+&+&+q#t#u#v#w#&+&+&+&+&+&+&+&+&+&+&+&+&+&+&+&+&+&+&+8.c+d+p+q+E+1+s+f.t+u+",
"i+j+v+l+w+a+b+D.m.&+&+&+&+&+&+&+&+&+&+&+&+&+&+&+&+&+&+&+q#x#y#z#A#&+&+&+&+&+&+&+&+&+&+&+&+&+&+&+&+&+&+&+8.c+d+p+q+E+1+s+f.t+u+",
"i+j+v+l+w+a+b+D.m.&+&+&+&+&+&+&+&+&+&+&+&+&+&+&+&+&+&+&+B#C#D#E#F#&+&+&+&+&+&+&+&+&+&+&+&+&+&+&+&+&+&+&+8.c+d+p+q+E+1+s+f.t+u+",
"i+j+v+l+w+a+b+D.m.&+&+&+&+&+&+&+&+&+&+&+&+&+&+&+&+&+&+&+G#H#I#J#&+&+&+&+&+&+&+&+&+&+&+&+&+&+&+&+&+&+&+&+8.c+d+p+q+E+1+s+f.t+u+",
"i+j+v+l+w+a+b+D.m.&+&+&+&+&+&+&+&+&+&+&+&+&+&+&+&+&+&+&+f#K#L#J#&+&+&+&+&+&+&+&+&+&+&+&+&+&+&+&+&+&+&+&+8.c+d+p+q+E+1+s+f.t+u+",
"i+j+v+l+w+a+b+D.m.&+&+&+&+&+&+&+&+&+&+&+&+&+&+&+&+&+&+&+f#K#M#N#&+&+&+&+&+&+&+&+&+&+&+&+&+&+&+&+&+&+&+&+8.c+d+p+q+E+1+s+f.t+u+",
"i+j+v+l+w+a+b+D.m.&+&+&+&+&+&+&+&+&+&+&+&+&+&+&+&+&+&+&+f#K#O#J#&+&+&+&+&+&+&+&+&+&+&+&+&+&+&+&+&+&+&+&+8.c+d+p+q+E+1+s+f.t+u+",
"i+j+v+l+w+a+b+D.m.&+&+&+&+&+&+&+&+&+&+&+&+&+&+&+&+&+&+&+f#K#P#Q#&+&+&+&+&+&+&+&+&+&+&+&+&+&+&+&+&+&+&+&+8.c+d+p+q+E+1+s+f.t+u+",
"i+j+v+l+w+a+b+D.m.&+&+&+&+&+&+&+&+&+&+&+&+&+&+&+&+&+&+&+f#K#R#S#&+&+&+&+&+&+&+&+&+&+&+&+&+&+&+&+&+&+&+&+8.c+d+p+q+E+1+s+f.t+u+",
"i+j+v+l+w+a+b+D.m.&+&+&+&+&+&+&+&+&+&+&+&+&+&+&+&+&+&+&+f#K#T#U#&+&+&+&+&+&+&+&+&+&+&+&+&+&+&+&+&+&+&+&+8.c+d+p+q+E+1+s+f.t+u+",
"i+j+k+l+0+a+b+D.m.&+&+&+&+&+&+&+&+&+&+&+&+&+&+&+&+&+&+&+f#K#T#U#&+&+&+&+&+&+&+&+&+&+&+&+&+&+&+&+&+&+&+&+8.c+d+V#W#X#Y#`.f.t+u+",
"~+Z#`#9+0+a+b+D.m.&+&+&+&+&+&+&+&+&+&+&+&+&+&+&+&+&+&+&+P@ $.$+$&+&+&+&+&+&+&+&+&+&+&+&+&+&+&+&+&+&+&+&+8.c+@$#$$$%$&$*$6+h+w.",
"N.{+%$K =$-$6.D.m.&+&+&+&+&+&+&+&+&+&+&+&+&+&+&+&+&+&+&+;$>$,$'$@#&+&+&+&+&+&+&+&+&+&+&+&+&+&+&+&+&+&+m.8.c+)$!$~${$]$*$x.^$w.",
"Y#| /$($$._$m.D.m.&+&+&+&+&+&+&+&+&+&+&+&+&+&+&+&+&+&+&+&+&+&+&+&+&+&+&+&+&+&+&+&+&+&+&+&+&+&+&+&+&+&+:$<$c+[$}$|$Y.1$2$x.^$/.",
"Y#1 3$4$5$6$7$D.G@8$n.9$9$9$9$9$9$9$9$9$9$9$9$9$9$9$9$9$9$9$9$9$9$9$9$9$9$9$9$9$9$9$9$9$9$9$9$9$9$9$n.0$a$c+b$c$d$e$f$g$h$^$M.",
"i$j$k$l$m$n$o$2.$+8.p$a$a$a$a$a$a$a$a$a$a$a$a$a$a$a$a$a$a$a$a$a$a$a$a$a$a$a$a$a$a$a$a$a$a$a$a$a$a$a$q$r$s$t$u$v$w$x$y$z$A$B$C$",
"D$^$E$F$G$H$I$J$K$L$M$:+:+:+:+:+:+:+:+:+:+:+:+:+:+:+:+:+:+:+:+:+:+:+:+:+:+:+:+:+:+:+:+:+:+:+:+:+:+:+N$O$P$Q$R$S$T$U$V$W$X$Y$Z$",
"`$ %.%+%@%#%$%%%&%*%=%=%=%=%=%=%=%=%=%=%=%=%=%=%=%=%=%=%=%=%=%=%=%=%=%=%=%=%=%=%=%=%=%=%=%=%=%=%=%=%-%;%>%,%'%)%!%~%{%]%^%/%(%",
"_%~.:%<%[%}%|%1%2%v$3%3%4%4%4%4%4%4%4%4%4%4%4%4%4%4%4%4%4%4%4%4%4%4%4%4%4%4%4%4%4%4%4%4%4%4%4%4%3%3%5%6%7%8%9%0%a%b%c%d%e%f%* ",
"g%h%i%j%k%l%m%n%o%p%q%r%r%s%s%s%s%s%s%s%s%s%s%s%s%s%s%s%s%s%s%s%s%s%s%s%s%s%s%s%s%s%s%s%s%s%s%s%r%p%t%u%v%w%|+x%y%z%A%B%C%D%E%",
"F%G%H%I%J%K%L%M.M%N%O%P%Q%Q%Q%Q%Q%Q%Q%Q%Q%Q%Q%Q%Q%Q%Q%Q%Q%Q%Q%Q%Q%Q%Q%Q%Q%Q%Q%Q%Q%Q%Q%Q%Q%Q%Q%Q%P%N%3 /.R%S%T%U%V%W%X%Y%Z%`% &",
"    .&+&@&#&$&%&&&s+i+N.*&I%I%=&=&=&=&=&=&=&=&=&=&=&=&=&=&=&=&=&=&=&=&=&=&=&=&=&=&=&=&=&=&=&I%I%-&;&s+>&s+,&'&)&!&~&{&        ",
"    ]&^&/&(&_&:&<&[&}&|&1&1&1&1&1&1&1&1&1&1&1&1&1&1&1&1&1&1&1&1&1&1&1&1&1&1&1&1&1&1&1&1&1&1&1&1&|&2&3&4&1&5&6&7&8&9&0&        ",
"    a&b&c&d&*&t.1+t.*&~+i+i+i+i+i+i+i+i+i+i+i+i+i+i+i+i+i+i+i+i+i+i+i+i+i+i+i+i+i+i+i+i+i+i+i+i+i+* J%e&e&i+ &f&g&h&i&        ",
"    j&k&l&m&n&o&p&o&^$q&- r&r&r&r&r&r&r&r&r&r&r&r&r&r&r&r&r&r&r&r&r&r&r&r&r&r&r&r&r&r&r&r&r&r&r&r&s&L%t&g.u&&$v&w&x&y&        "};
