/* XPM */
static char * scope_xpm[] = {
"30 30 2 1",
" 	c #000000",
".	c #0CF041",
"            .....             ",
"            .....             ",
"            .....             ",
"            .....             ",
"            .....             ",
"            .....             ",
"            .....             ",
"            .....             ",
"             ...              ",
"                              ",
"                              ",
"                              ",
"                              ",
"........             .........",
"........             .........",
"........             .........",
"........             .........",
"                              ",
"                              ",
"                              ",
"                              ",
"             ...              ",
"            .....             ",
"            .....             ",
"            .....             ",
"            .....             ",
"            .....             ",
"            .....             ",
"            .....             ",
"            .....             "};
